<?xml version="1.0" encoding="UTF-8"?>
<svg id="Layer_2" data-name="Layer 2" xmlns="http://www.w3.org/2000/svg" viewBox="0 0 511 512">
  <defs>
    <style>
      .cls-1 {
        fill: none;
      }

      .cls-1, .cls-2 {
        stroke-width: 0px;
      }

      .cls-2 {
        fill: #fff;
      }
    </style>
  </defs>
  <g id="Layer_1-2" data-name="Layer 1">
    <g>
      <path class="cls-1" d="m511,512H0V0h511v512Zm-374.53-161.35c8.28,8.41,15.55,15.79,23.28,23.64,12.93-13.05,26.13-26.37,38.3-38.65,13.57,5.68,26.49,11.09,40.54,16.97v95.26h31.9v-95.32c13.88-5.81,26.8-11.22,39.91-16.71,22.19,21.78,45.31,44.46,68.23,66.95,7.33-7.32,14.82-14.81,22.06-22.04-22.44-22.9-45.13-46.04-66.89-68.24,5.55-13.3,11-26.36,16.83-40.32h47.34v-31.45h-79.63c0,5.1,0,9.89,0,14.69-.07,34.61-22.1,59.84-56.3,64.48-34.31,4.65-66.07-19.18-70.54-53.33-1.11-8.49-.93-17.14-1.34-25.81H63.16v31.92h95.19c5.92,13.76,11.38,26.47,17.38,40.41-12.56,12.01-26.13,24.99-39.25,37.55ZM238.46,64.94c0,2.4,0,4.37,0,6.34,0,51.04-.01,102.08.08,153.11,0,3.08-.8,5.01-3.38,6.97-15.16,11.52-16.98,32.57-4.27,46.6,12.46,13.76,34.53,13.84,46.98.17,12.77-14.02,11.1-35.08-3.96-46.65-2.71-2.08-3.57-4.12-3.56-7.39.11-41.06.08-82.13.09-123.19,0-11.92,0-23.83,0-35.98h-31.98Zm82.79,145.7c27.25-26.73,54.53-53.49,81.34-79.8-7.57-7.72-14.85-15.15-22.46-22.9-26.68,27.17-53.44,54.44-80.08,81.57,6.89,6.87,14.29,14.25,21.19,21.13Zm-104.41-13.39c-15.64-15.63-31.45-31.44-46.67-46.65-7.15,7.16-14.61,14.63-21.77,21.81,15.37,15.39,31.09,31.13,46.61,46.67,7.3-7.31,14.79-14.8,21.83-21.84Z"/>
      <path class="cls-2" d="m136.47,350.65c13.13-12.56,26.7-25.54,39.25-37.55-5.99-13.94-11.46-26.64-17.38-40.41H63.16v-31.92h126.99c.41,8.67.23,17.32,1.34,25.81,4.47,34.15,36.23,57.98,70.54,53.33,34.2-4.64,56.23-29.87,56.3-64.48,0-4.79,0-9.59,0-14.69h79.63v31.45h-47.34c-5.82,13.95-11.28,27.02-16.83,40.32,21.76,22.2,44.45,45.34,66.89,68.24-7.24,7.24-14.73,14.72-22.06,22.04-22.92-22.49-46.03-45.17-68.23-66.95-13.11,5.49-26.03,10.9-39.91,16.71v95.32h-31.9v-95.26c-14.05-5.88-26.97-11.29-40.54-16.97-12.16,12.27-25.37,25.6-38.3,38.65-7.73-7.85-15-15.23-23.28-23.64Z"/>
      <path class="cls-2" d="m238.46,64.94h31.98c0,12.14,0,24.06,0,35.98,0,41.06.02,82.13-.09,123.19,0,3.27.85,5.31,3.56,7.39,15.06,11.56,16.73,32.63,3.96,46.65-12.45,13.67-34.52,13.59-46.98-.17-12.71-14.03-10.88-35.08,4.27-46.6,2.58-1.96,3.38-3.89,3.38-6.97-.09-51.04-.07-102.08-.08-153.11,0-1.97,0-3.94,0-6.34Z"/>
      <path class="cls-2" d="m321.25,210.64c-6.9-6.88-14.3-14.26-21.19-21.13,26.64-27.13,53.4-54.39,80.08-81.57,7.61,7.76,14.89,15.19,22.46,22.9-26.81,26.3-54.09,53.06-81.34,79.8Z"/>
      <path class="cls-2" d="m216.84,197.25c-7.04,7.04-14.53,14.53-21.83,21.84-15.52-15.54-31.24-31.29-46.61-46.67,7.16-7.18,14.62-14.65,21.77-21.81,15.22,15.21,31.03,31.02,46.67,46.65Z"/>
    </g>
  </g>
</svg>