<?xml version="1.0" encoding="utf-8"?>
<!-- Generator: Adobe Illustrator 28.0.0, SVG Export Plug-In . SVG Version: 6.00 Build 0)  -->
<svg version="1.1" id="Layer_1" xmlns="http://www.w3.org/2000/svg" xmlns:xlink="http://www.w3.org/1999/xlink" x="0px" y="0px"
	 viewBox="0 0 256 256" style="enable-background:new 0 0 256 256;" xml:space="preserve">
<style type="text/css">
	.st0{fill:#FFFFFF;}
</style>
<g transform="translate(1.4065934065934016 1.4065934065934016) scale(2.81 2.81)">
	<path class="st0" d="M40.1,84.9c-0.2,0-0.5,0-0.7-0.1L1.3,70.9C0.5,70.6,0,69.8,0,69V20.7c0-0.7,0.3-1.3,0.9-1.6
		c0.5-0.4,1.2-0.5,1.8-0.2l38.1,13.9c0.8,0.3,1.3,1,1.3,1.9v48.2c0,0.7-0.3,1.3-0.9,1.6C40.9,84.8,40.5,84.9,40.1,84.9z M4,67.6
		l34.1,12.5v-44L4,23.6V67.6z"/>
	<path class="st0" d="M40.1,84.9c-0.4,0-0.8-0.1-1.1-0.4c-0.5-0.4-0.9-1-0.9-1.6V34.7c0-1.1,0.9-2,2-2s2,0.9,2,2v45.4l7.3-2.7
		c1-0.4,2.2,0.2,2.6,1.2c0.4,1-0.2,2.2-1.2,2.6l-10,3.7C40.5,84.9,40.3,84.9,40.1,84.9z"/>
	<path class="st0" d="M78.1,44.3c-1.1,0-2-0.9-2-2V23.6l-35.4,13c-1,0.4-2.2-0.2-2.6-1.2c-0.4-1,0.2-2.2,1.2-2.6l38.1-13.9
		c0.6-0.2,1.3-0.1,1.8,0.2c0.5,0.4,0.9,1,0.9,1.6v21.5C80.1,43.4,79.2,44.3,78.1,44.3z"/>
	<path class="st0" d="M40.1,36.7c-0.2,0-0.5,0-0.7-0.1L1.3,22.6c-0.8-0.3-1.3-1-1.3-1.9s0.5-1.6,1.3-1.9L39.4,4.9
		c0.4-0.2,0.9-0.2,1.4,0l38.1,13.9c0.8,0.3,1.3,1,1.3,1.9s-0.5,1.6-1.3,1.9L40.7,36.6C40.5,36.6,40.3,36.7,40.1,36.7z M7.8,20.7
		l32.2,11.8l32.2-11.8L40.1,8.9L7.8,20.7z"/>
	<path class="st0" d="M20.1,42.5c-1.1,0-2-0.9-2-2V27.4c0-0.8,0.5-1.6,1.3-1.9l38.4-13.8c1-0.4,2.2,0.2,2.6,1.2
		c0.4,1-0.2,2.2-1.2,2.6l-37,13.3v11.7C22.1,41.6,21.2,42.5,20.1,42.5z"/>
	<path class="st0" d="M66.6,73.1c-0.5,0-1-0.2-1.4-0.6L59,66.3c-0.8-0.8-0.8-2,0-2.8s2-0.8,2.8,0l4.8,4.8l11.1-11.1
		c0.8-0.8,2-0.8,2.8,0s0.8,2,0,2.8L68,72.6C67.6,72.9,67.1,73.1,66.6,73.1z"/>
	<path class="st0" d="M69.7,85.2c-11.2,0-20.3-9.1-20.3-20.3c0-11.2,9.1-20.3,20.3-20.3c11.2,0,20.3,9.1,20.3,20.3
		C90,76.1,80.9,85.2,69.7,85.2z M69.7,48.6c-9,0-16.3,7.3-16.3,16.3s7.3,16.3,16.3,16.3S86,73.9,86,64.9S78.7,48.6,69.7,48.6z"/>
</g>
</svg>
